<?xml version="1.0" encoding="utf-8"?>
<svg viewBox="0 0 1000 299" xmlns="http://www.w3.org/2000/svg" xmlns:bx="https://boxy-svg.com">
  <defs>
    <style bx:fonts="Nunito Sans">@import url(https://fonts.googleapis.com/css2?family=Nunito+Sans%3Aital%2Cwght%400%2C200%3B0%2C300%3B0%2C400%3B0%2C600%3B0%2C700%3B0%2C800%3B0%2C900%3B1%2C200%3B1%2C300%3B1%2C400%3B1%2C600%3B1%2C700%3B1%2C800%3B1%2C900&amp;display=swap);</style>
  </defs>
  <g transform="matrix(1, 0, 0, 1, -0.557455, 0.090487)">
    <svg viewBox="0 0 381 114" data-background-color="#fbeaab" preserveAspectRatio="xMidYMid meet" height="299" width="1000" xmlns="http://www.w3.org/2000/svg">
      <g id="tight-bounds" transform="matrix(1,0,0,1,0.21239019607642717,-0.03449999999997999)">
        <svg viewBox="0 0 380.57521963169114 114.06899999999999" height="114.06899999999999" width="380.57521963169114">
          <g>
            <svg viewBox="0 0 380.57521963169114 114.06899999999999" height="114.06899999999999" width="380.57521963169114">
              <g>
                <svg viewBox="0 0 380.57521963169114 114.06899999999999" height="114.06899999999999" width="380.57521963169114">
                  <g id="textblocktransform">
                    <svg viewBox="0 0 380.57521963169114 114.06899999999999" height="114.06899999999999" width="380.57521963169114" id="textblock">
                      <g>
                        <svg viewBox="0 0 380.57521963169114 114.06899999999999" height="114.06899999999999" width="380.57521963169114">
                          <g>
                            <svg>
                              <g/>
                              <g/>
                            </svg>
                          </g>
                          <g>
                            <svg>
                              <g/>
                              <g>
                                <svg/>
                              </g>
                            </svg>
                          </g>
                          <g id="text-0">
                            <svg viewBox="0 0 380.57521963169114 114.06899999999999" height="114.06899999999999" width="380.57521963169114">
                              <g transform="matrix(1,0,0,1,0,39.409499999999994)">
                                <svg width="113.35000000000004" viewBox="0.6000000238418579 -35.25 113.34000396728516 35.25" height="35.25" data-palette-color="#454545">
                                  <path d="M16.3 0L13.25 0 13.25-32.55 0.6-32.55 0.6-35.25 28.9-35.25 28.9-32.55 16.3-32.55 16.3 0ZM60.15 0L57 0 52.95-9.4 33.95-9.4 29.9 0 26.75 0 42.05-35.25 44.85-35.25 60.15 0ZM43.45-31.6L35.1-12.1 51.8-12.1 43.45-31.6ZM87.3 0L66 0 66-35.25 69.09-35.25 69.09-2.7 87.3-2.7 87.3 0ZM113.94 0L92.64 0 92.64-35.25 95.74-35.25 95.74-2.7 113.94-2.7 113.94 0Z" opacity="1" transform="matrix(1,0,0,1,0,0)" fill="#454545" class="undefined-p-0"/>
                                </svg>
                              </g>
                              <g>
                                <svg xmlns="http://www.w3.org/2000/svg" version="1.1" x="126.81550000000004" y="0" viewBox="24.48200225830078 7.7779998779296875 48.81800079345703 87.22200012207031" enable-background="new 0 0 100 100" height="114.06899999999999" width="63.844219631691146" class="icon-s-0" data-fill-palette-color="accent" id="s-0">
                                  <path d="M73.3 16.381l-8.446-8.445L48.947 30.223 32.928 7.778l-8.446 8.446 22.444 16.019L24.64 48.15l8.445 8.446 14.887-20.857v10.575h-2.836L40.283 95h1.422l0.479-4.587h13.106L55.759 95h1.561l-4.867-48.687H49.63V35.33l15.065 21.108 8.446-8.445-22.066-15.75L73.3 16.381zM46.464 49.436l1.604 2.914L45.7 56.755 46.464 49.436zM44.854 72.589l3.947-5.728 3.947 5.728H44.854zM52.691 74.147l-3.89 5.213-3.89-5.213H52.691zM46.228 60.385h5.276l-2.658 3.876L46.228 60.385zM46.107 58.823l2.762-5.019 2.764 5.019H46.107zM45.191 61.625l2.737 3.973-3.718 5.428L45.191 61.625zM43.795 75.001l4.099 5.573L42.45 87.87 43.795 75.001zM43.744 88.853l5.092-7 5.151 7H43.744zM55.015 87.687l-5.278-7.073 4.003-5.499L55.015 87.687zM53.307 70.864l-3.596-5.323 2.662-3.861L53.307 70.864zM51.858 56.61l-2.215-4.208 1.511-2.742L51.858 56.61zM50.471 47.874l-1.623 3.019-1.589-3.019h0.713 1.659H50.471zM46.972 32.21l1.944-1.943-0.086 0.121 1.721 1.72-1.738 1.738-1.72-1.721L46.972 32.21z" fill="#454545" data-fill-palette-color="accent"/>
                                </svg>
                              </g>
                              <g transform="matrix(1,0,0,1,204.12521963169118,39.409499999999994)">
                                <svg width="176.44999999999996" viewBox="4.550000190734863 -35.25 176.44000244140625 35.25" height="35.25" data-palette-color="#454545">
                                  <path d="M23.85-18.05Q26.9-17.3 28.58-15.08 30.25-12.85 30.25-9.55L30.25-9.55Q30.25-4.9 27.23-2.45 24.2 0 18.65 0L18.65 0 4.55 0 4.55-35.25 18.15-35.25Q23.55-35.25 26.5-32.85 29.45-30.45 29.45-26L29.45-26Q29.45-23.15 27.98-21.1 26.5-19.05 23.85-18.05L23.85-18.05ZM7.6-32.6L7.6-19.25 17.7-19.25Q21.95-19.25 24.15-21 26.35-22.75 26.35-26.05L26.35-26.05Q26.35-32.6 17.7-32.6L17.7-32.6 7.6-32.6ZM18.45-2.65Q22.9-2.65 25.03-4.33 27.15-6 27.15-9.45L27.15-9.45Q27.15-16.55 18.45-16.55L18.45-16.55 7.6-16.55 7.6-2.65 18.45-2.65ZM58.75-11.8L65.05 0 61.65 0 55.7-11.3Q54.5-13.6 52.9-14.45 51.3-15.3 48.5-15.3L48.5-15.3 41.15-15.3 41.15 0 38.05 0 38.05-35.25 52.15-35.25Q57.7-35.25 60.7-32.73 63.7-30.2 63.7-25.35L63.7-25.35Q63.7-21.25 61.32-18.78 58.95-16.3 54.55-15.75L54.55-15.75Q55.85-15.35 56.87-14.38 57.9-13.4 58.75-11.8L58.75-11.8ZM41.1-17.95L51.95-17.95Q60.65-17.95 60.65-25.4L60.65-25.4Q60.65-29.05 58.5-30.83 56.35-32.6 51.95-32.6L51.95-32.6 41.1-32.6 41.1-17.95ZM93.89 0L72.14 0 72.14-35.25 93.89-35.25 93.89-32.6 75.19-32.6 75.19-19.25 92.89-19.25 92.89-16.55 75.19-16.55 75.19-2.65 93.89-2.65 93.89 0ZM122.84 0L101.09 0 101.09-35.25 122.84-35.25 122.84-32.6 104.14-32.6 104.14-19.25 121.84-19.25 121.84-16.55 104.14-16.55 104.14-2.65 122.84-2.65 122.84 0ZM152.34-33L131.24-2.65 152.84-2.65 152.84 0 127.64 0 127.64-2.25 148.74-32.6 127.64-32.6 127.64-35.25 152.34-35.25 152.34-33ZM180.99 0L159.24 0 159.24-35.25 180.99-35.25 180.99-32.6 162.29-32.6 162.29-19.25 179.99-19.25 179.99-16.55 162.29-16.55 162.29-2.65 180.99-2.65 180.99 0Z" opacity="1" transform="matrix(1,0,0,1,0,0)" fill="#454545" class="undefined-p-1"/>
                                </svg>
                              </g>
                            </svg>
                          </g>
                        </svg>
                      </g>
                    </svg>
                  </g>
                </svg>
              </g>
            </svg>
          </g>
        </svg>
        <rect width="380.57521963169114" height="114.06899999999999" fill="none" stroke="none" visibility="hidden"/>
      </g>
    </svg>
  </g>
  <text style="fill: rgb(69, 69, 69); font-family: &quot;Nunito Sans&quot;; font-size: 68px; font-style: italic; font-weight: 300; text-anchor: end; white-space: pre;" x="1001.31" y="272.505">.com</text>
</svg>