<?xml version="1.0" encoding="utf-8"?>
<svg viewBox="332.967 0 167.451 299.181" xmlns="http://www.w3.org/2000/svg">
  <path d="M73.3 16.381l-8.446-8.445L48.947 30.223 32.928 7.778l-8.446 8.446 22.444 16.019L24.64 48.15l8.445 8.446 14.887-20.857v10.575h-2.836L40.283 95h1.422l0.479-4.587h13.106L55.759 95h1.561l-4.867-48.687H49.63V35.33l15.065 21.108 8.446-8.445-22.066-15.75L73.3 16.381zM46.464 49.436l1.604 2.914L45.7 56.755 46.464 49.436zM44.854 72.589l3.947-5.728 3.947 5.728H44.854zM52.691 74.147l-3.89 5.213-3.89-5.213H52.691zM46.228 60.385h5.276l-2.658 3.876L46.228 60.385zM46.107 58.823l2.762-5.019 2.764 5.019H46.107zM45.191 61.625l2.737 3.973-3.718 5.428L45.191 61.625zM43.795 75.001l4.099 5.573L42.45 87.87 43.795 75.001zM43.744 88.853l5.092-7 5.151 7H43.744zM55.015 87.687l-5.278-7.073 4.003-5.499L55.015 87.687zM53.307 70.864l-3.596-5.323 2.662-3.861L53.307 70.864zM51.858 56.61l-2.215-4.208 1.511-2.742L51.858 56.61zM50.471 47.874l-1.623 3.019-1.589-3.019h0.713 1.659H50.471zM46.972 32.21l1.944-1.943-0.086 0.121 1.721 1.72-1.738 1.738-1.72-1.721L46.972 32.21z" fill="#454545" data-fill-palette-color="accent" transform="matrix(3.430109, 0, 0, 3.430109, 248.99152, -26.679387)"/>
</svg>